<svg width="16" height="14" viewBox="0 0 16 14" fill="none" xmlns="http://www.w3.org/2000/svg">
<path d="M15.7753 12.3282L11.2038 8.74447V5.59342L14.0047 4.30974V9.19963C14.0047 9.53099 14.2736 9.79983 14.6049 9.79983C14.9363 9.79983 15.2051 9.53224 15.2051 9.19963V3.99789C15.2051 3.65552 15.0332 3.34092 14.7452 3.15586C14.4569 2.97064 14.098 2.94601 13.7879 3.08863L11.2038 4.27298V3.79782C11.2038 2.91378 10.4873 2.19729 9.60328 2.19729L2.84854 2.17478L0.970671 0.724569C0.709084 0.5202 0.333209 0.565515 0.128166 0.826553C-0.0762015 1.08766 -0.0307364 1.46504 0.2299 1.66936L15.0123 13.2507C15.1451 13.3585 15.2752 13.401 15.3827 13.401C15.5609 13.401 15.7368 13.322 15.8554 13.1711C16.0829 12.9109 16.0354 12.5332 15.7753 12.3282ZM10.0034 7.80416L4.38155 3.39769H9.60328C9.82426 3.39769 10.0034 3.5768 10.0034 3.79782V7.80416ZM9.60328 10.6001H2.4009C2.18027 10.6001 2.00076 10.4206 2.00076 10.2V4.57058L0.816119 3.64277C0.810868 3.69529 0.800364 3.7453 0.800364 3.79782V10.2C0.800364 11.084 1.51685 11.8005 2.4009 11.8005H9.60328C10.0204 11.8005 10.397 11.637 10.6819 11.3756L9.67431 10.5858C9.6508 10.5901 9.62829 10.6001 9.60328 10.6001Z" fill="#7C7C7C"/>
</svg>
