<svg width="12" height="16" viewBox="0 0 12 16" fill="none" xmlns="http://www.w3.org/2000/svg">
<path d="M6 11C7.65719 11 9 9.65719 9 8V3C9 1.34281 7.65719 0 6 0C4.34281 0 3 1.34281 3 3V8C3 9.65625 4.31562 11 6 11ZM10.75 6C10.3344 6 10 6.33438 10 6.72188V8C10 10.2916 8.06344 12.1375 5.74062 11.9906C3.67562 11.8603 2 9.90969 2 7.84062V6.72188C2 6.33438 1.66406 6 1.25 6C0.835938 6 0.5 6.33438 0.5 6.72188V7.72656C0.5 10.5284 2.49906 13.0266 5.25 13.4047V14.5H4C3.43156 14.5 2.97375 14.9744 3.00125 15.5491C3.01344 15.8063 3.24375 16 3.5 16H8.5C8.75694 16 8.98656 15.8057 8.99875 15.5491C9.025 14.975 8.56875 14.5 8 14.5H6.75V13.4447C9.42813 13.0781 11.5 10.7781 11.5 8V6.72188C11.5 6.33438 11.1656 6 10.75 6Z" fill="#7C7C7C"/>
</svg>
