<svg width="16" height="14" viewBox="0 0 16 14" fill="none" xmlns="http://www.w3.org/2000/svg">
<path d="M15.7753 12.3282L11.7915 9.20463C12.1771 8.55691 12.4049 7.80691 12.4049 6.99864V5.99856C12.4049 5.66695 12.1361 5.39836 11.8272 5.39836C11.5184 5.39836 11.227 5.66695 11.227 5.99856L11.227 6.97638C11.227 7.50431 11.0863 7.99447 10.8577 8.43287L10.2145 7.9287C10.3444 7.6361 10.4269 7.31775 10.4269 6.97638L10.381 2.99755C10.381 1.67211 9.32817 0.596751 8.00273 0.596751C6.67729 0.596751 5.57942 1.67211 5.57942 2.99755V4.35426L0.970636 0.724569C0.708799 0.5202 0.333174 0.565515 0.128105 0.826553C-0.0762626 1.08766 -0.0307975 1.46504 0.229839 1.66936L15.0123 13.2507C15.1451 13.3585 15.2751 13.401 15.3827 13.401C15.5609 13.401 15.7368 13.322 15.8553 13.1711C16.0829 12.9109 16.0354 12.5332 15.7753 12.3282ZM9.20313 6.99889C9.20313 7.05433 9.18613 7.10455 9.17885 7.15797L6.80233 5.29582V2.99755C6.80233 2.33483 7.34001 1.79715 8.00273 1.79715C8.66545 1.79715 9.20313 2.33483 9.20313 2.99755V6.99889ZM9.80333 12.2006L8.60293 12.2006V11.3561C9.12185 11.285 9.61001 11.1201 10.0552 10.8844L8.9803 10.0419C8.57617 10.1721 8.13952 10.2292 7.68387 10.1844C6.02207 10.0224 4.80166 8.5269 4.80166 6.85634V6.76631L3.63127 5.84851C3.61877 5.87602 3.60126 5.94604 3.60126 5.99856L3.57875 6.80132C3.57875 9.04282 5.15678 11.0427 7.35751 11.3453V12.1994L6.20213 12.2006C5.86952 12.2006 5.60193 12.4682 5.60193 12.8008C5.60193 13.1334 5.86952 13.401 6.20213 13.401H9.80333C10.1347 13.401 10.4035 13.1322 10.4035 12.8008C10.4035 12.4682 10.1359 12.2006 9.80333 12.2006Z" fill="#7C7C7C"/>
</svg>
